<svg width="187" height="30" viewBox="0 0 187 30" fill="none" xmlns="http://www.w3.org/2000/svg">
<g clip-path="url(#clip0_761_1192)">
<path d="M153.255 24.3964H141.678C137.638 24.3964 134.351 21.1091 134.351 17.0697V12.6327C134.351 8.63622 137.603 5.38491 141.599 5.38491H153.153V9.67005C153.153 13.6645 149.904 16.9198 145.909 16.9268L138.347 16.9408V17.0697C138.347 18.9066 139.841 20.4009 141.678 20.4009H153.255V24.3964ZM141.599 9.38038C139.805 9.38038 138.347 10.8397 138.347 12.6327V12.9453L145.901 12.9314C147.696 12.9284 149.157 11.465 149.157 9.67005V9.38038H141.598H141.599Z" fill="#666666"/>
<path d="M38.8016 29.8542H34.8062V5.38491H47.3589C51.3834 5.38491 54.6576 8.6592 54.6576 12.6836V17.0767C54.6576 21.1161 51.3714 24.4073 47.331 24.4143L38.8006 24.4273V29.8552L38.8016 29.8542ZM38.8016 9.38038V20.4309L47.326 20.4179C49.1659 20.4149 50.6632 18.9156 50.6632 17.0757V12.6826C50.6632 10.8607 49.1809 9.37938 47.3599 9.37938H38.8026L38.8016 9.38038Z" fill="#666666"/>
<path d="M82.3243 29.8542H78.3288V5.38491H90.8536C94.894 5.38491 98.1803 8.67218 98.1803 12.7116V17.0836C98.1803 21.0981 94.914 24.3684 90.8996 24.3744L82.3233 24.3874V29.8542H82.3243ZM82.3243 9.38038V20.3929L90.8946 20.3799C92.7095 20.3769 94.1848 18.8986 94.1848 17.0846V12.7126C94.1848 10.8757 92.6905 9.38138 90.8536 9.38138H82.3243V9.38038Z" fill="#666666"/>
<path d="M111.901 24.9218H100.434V5.70255H104.429V20.9263H111.901C113.684 20.9263 115.135 19.4759 115.135 17.692V5.70255H119.131V17.692C119.131 21.6784 115.887 24.9218 111.901 24.9218Z" fill="#666666"/>
<path d="M125.43 25.0236H121.435V13.1261C121.435 9.14664 124.672 5.90931 128.652 5.90931H133.199V9.90478H128.652C126.876 9.90478 125.43 11.3501 125.43 13.1261V25.0236Z" fill="#666666"/>
<path d="M56.7583 0.207111H60.7538V15.0147H67.8117L76.2701 24.5029H70.6435L65.667 19.005H60.7538V24.5262H56.7583V0.207111Z" fill="#666666"/>
<path d="M64.4187 5.70255H72.3987L68.4082 13.6835L64.4187 5.70255Z" fill="#6DE18B"/>
<path opacity="0.3" d="M60.7549 19.0065H61.7347V15.011H60.7549V19.0065Z" fill="url(#paint0_linear_761_1192)"/>
<path opacity="0.3" d="M82.3254 24.3983H83.3053V20.3919H82.3254V24.3983Z" fill="url(#paint1_linear_761_1192)"/>
<path opacity="0.3" d="M38.8027 24.4243H39.7826V20.4319H38.8027V24.4243Z" fill="url(#paint2_linear_761_1192)"/>
<path opacity="0.3" d="M138.347 16.9458H139.327V12.9453H138.347V16.9458Z" fill="url(#paint3_linear_761_1192)"/>
<path opacity="0.7" d="M26.6025 20.8683H31.2603L28.9319 25.5271L26.6025 20.8683Z" fill="#6DE18B"/>
<path opacity="0.4" d="M29.8508 18.7018H32.6237L31.2373 21.4737L29.8508 18.7018Z" fill="#6DE18B"/>
<path d="M22.2324 22.9949H29.2375L25.7355 30L22.2324 22.9949Z" fill="#6DE18B"/>
<path d="M22.0042 22.3149H7.31116L10.8726 14.8292H18.3282L22.0042 22.3149Z" fill="#00C963"/>
<g filter="url(#filter0_d_761_1192)">
<path d="M22.0136 22.3207L25.7244 14.8642L18.3282 0H10.9781L22.0136 22.3207Z" fill="#5CCF4B"/>
</g>
<g filter="url(#filter1_d_761_1192)">
<path d="M0 22.3977L10.9953 1.52588e-05H18.3282L3.6046 29.8222L0 22.3977Z" fill="#2DC88B"/>
</g>
<path d="M158.255 5C158.255 2.23858 160.493 0 163.255 0H182.005C183.386 0 184.505 1.11929 184.505 2.5V10C184.505 12.7614 182.266 15 179.505 15H160.755C159.374 15 158.255 13.8807 158.255 12.5V5Z" fill="#6DE18B"/>
<path d="M179.524 8.05288C179.508 7.83654 179.461 7.6282 179.383 7.42788C179.312 7.22756 179.211 7.05529 179.077 6.91105C178.952 6.75881 178.796 6.63862 178.608 6.55048C178.428 6.45432 178.224 6.40625 177.997 6.40625C177.763 6.40625 177.547 6.45032 177.352 6.53846C177.164 6.61859 177 6.73477 176.859 6.88702C176.726 7.03125 176.616 7.20352 176.53 7.40384C176.452 7.60416 176.409 7.82051 176.401 8.05288H179.524ZM176.401 8.95432C176.401 9.19471 176.432 9.42708 176.495 9.65144C176.565 9.8758 176.667 10.0721 176.8 10.2404C176.933 10.4087 177.101 10.5449 177.305 10.649C177.508 10.7452 177.751 10.7933 178.033 10.7933C178.424 10.7933 178.737 10.7091 178.972 10.5409C179.214 10.3646 179.394 10.1042 179.512 9.75961H180.78C180.709 10.0962 180.588 10.3966 180.416 10.6611C180.244 10.9255 180.036 11.1498 179.794 11.3341C179.551 11.5104 179.277 11.6426 178.972 11.7308C178.674 11.8269 178.361 11.875 178.033 11.875C177.555 11.875 177.133 11.7949 176.765 11.6346C176.397 11.4744 176.084 11.25 175.826 10.9615C175.575 10.6731 175.384 10.3285 175.251 9.92788C175.125 9.52724 175.063 9.08654 175.063 8.60577C175.063 8.16506 175.129 7.74839 175.262 7.35577C175.403 6.95513 175.599 6.60657 175.849 6.31009C176.108 6.00561 176.417 5.76522 176.777 5.58894C177.137 5.41266 177.544 5.32452 177.997 5.32452C178.475 5.32452 178.901 5.42868 179.277 5.63702C179.66 5.83734 179.977 6.10577 180.228 6.4423C180.478 6.77884 180.658 7.16747 180.768 7.60817C180.885 8.04086 180.917 8.48958 180.862 8.95432H176.401Z" fill="white"/>
<path d="M170.837 5.49278H171.846V3.6298H173.184V5.49278H174.393V6.51441H173.184V9.83172C173.184 9.97595 173.188 10.1001 173.196 10.2043C173.212 10.3085 173.239 10.3966 173.278 10.4687C173.325 10.5409 173.392 10.5969 173.478 10.637C173.564 10.6691 173.681 10.6851 173.83 10.6851C173.924 10.6851 174.018 10.6851 174.112 10.6851C174.206 10.6771 174.3 10.661 174.393 10.637V11.6947C174.245 11.7107 174.1 11.7268 173.959 11.7428C173.818 11.7588 173.673 11.7668 173.525 11.7668C173.173 11.7668 172.887 11.7348 172.668 11.6707C172.457 11.5985 172.288 11.4984 172.163 11.3702C172.046 11.234 171.963 11.0657 171.917 10.8654C171.877 10.6651 171.854 10.4367 171.846 10.1803V6.51441H170.837V5.49278Z" fill="white"/>
<path d="M168.651 3.125H169.989V4.42308H168.651V3.125ZM168.651 5.49279H169.989V11.7067H168.651V5.49279Z" fill="white"/>
<path d="M162.063 3.125H163.53V10.4087H167.791V11.7067H162.063V3.125Z" fill="white"/>
</g>
<defs>
<filter id="filter0_d_761_1192" x="7.97815" y="-1" width="18.7463" height="26.3207" filterUnits="userSpaceOnUse" color-interpolation-filters="sRGB">
<feFlood flood-opacity="0" result="BackgroundImageFix"/>
<feColorMatrix in="SourceAlpha" type="matrix" values="0 0 0 0 0 0 0 0 0 0 0 0 0 0 0 0 0 0 127 0" result="hardAlpha"/>
<feOffset dx="-1" dy="1"/>
<feGaussianBlur stdDeviation="1"/>
<feColorMatrix type="matrix" values="0 0 0 0 0.4 0 0 0 0 0.4 0 0 0 0 0.4 0 0 0 0.12 0"/>
<feBlend mode="normal" in2="BackgroundImageFix" result="effect1_dropShadow_761_1192"/>
<feBlend mode="normal" in="SourceGraphic" in2="effect1_dropShadow_761_1192" result="shape"/>
</filter>
<filter id="filter1_d_761_1192" x="-1" y="-1.99998" width="22.3282" height="33.8222" filterUnits="userSpaceOnUse" color-interpolation-filters="sRGB">
<feFlood flood-opacity="0" result="BackgroundImageFix"/>
<feColorMatrix in="SourceAlpha" type="matrix" values="0 0 0 0 0 0 0 0 0 0 0 0 0 0 0 0 0 0 127 0" result="hardAlpha"/>
<feOffset dx="1"/>
<feGaussianBlur stdDeviation="1"/>
<feColorMatrix type="matrix" values="0 0 0 0 0.0196078 0 0 0 0 0.384314 0 0 0 0 0.188235 0 0 0 0.12 0"/>
<feBlend mode="normal" in2="BackgroundImageFix" result="effect1_dropShadow_761_1192"/>
<feBlend mode="normal" in="SourceGraphic" in2="effect1_dropShadow_761_1192" result="shape"/>
</filter>
<linearGradient id="paint0_linear_761_1192" x1="61.7347" y1="17.0087" x2="60.7549" y2="17.0087" gradientUnits="userSpaceOnUse">
<stop stop-color="#333333"/>
<stop offset="1"/>
</linearGradient>
<linearGradient id="paint1_linear_761_1192" x1="83.3053" y1="22.3946" x2="82.3254" y2="22.3946" gradientUnits="userSpaceOnUse">
<stop stop-color="#333333"/>
<stop offset="1"/>
</linearGradient>
<linearGradient id="paint2_linear_761_1192" x1="39.7826" y1="22.4276" x2="38.8027" y2="22.4276" gradientUnits="userSpaceOnUse">
<stop stop-color="#333333"/>
<stop offset="1"/>
</linearGradient>
<linearGradient id="paint3_linear_761_1192" x1="139.328" y1="14.9451" x2="138.347" y2="14.9451" gradientUnits="userSpaceOnUse">
<stop stop-color="#333333"/>
<stop offset="1"/>
</linearGradient>
<clipPath id="clip0_761_1192">
<rect width="186.25" height="30" fill="white"/>
</clipPath>
</defs>
</svg>
